<svg width="20" height="21" viewBox="0 0 20 21" fill="none" xmlns="http://www.w3.org/2000/svg">
<path d="M19.0871 5.21C18.2371 4.27 16.8171 3.8 14.7571 3.8H14.5171V3.76C14.5171 2.08 14.5171 0 10.7571 0H9.23711C5.47711 0 5.47711 2.09 5.47711 3.76V3.81H5.23711C3.16711 3.81 1.75711 4.28 0.907108 5.22C-0.0828924 6.32 -0.0528923 7.8 0.0471077 8.81L0.0571077 8.88L0.134108 9.693C0.149108 9.843 0.229108 9.978 0.355108 10.06C0.595108 10.217 0.996108 10.476 1.23711 10.61C1.37711 10.7 1.52711 10.78 1.67711 10.86C3.38711 11.8 5.26711 12.43 7.17711 12.74C7.26711 13.68 7.67711 14.78 9.86711 14.78C12.0571 14.78 12.4871 13.69 12.5571 12.72C14.5971 12.39 16.5671 11.68 18.3471 10.64C18.4071 10.61 18.4471 10.58 18.4971 10.55C18.8941 10.325 19.3051 10.049 19.6801 9.778C19.7359 9.73758 19.7827 9.68591 19.8173 9.62631C19.8519 9.56671 19.8737 9.50052 19.8811 9.432L19.8971 9.289L19.9471 8.819C19.9571 8.759 19.9571 8.709 19.9671 8.639C20.0471 7.629 20.0271 6.25 19.0871 5.21ZM11.0871 12.06C11.0871 13.12 11.0871 13.28 9.85711 13.28C8.62711 13.28 8.62711 13.09 8.62711 12.07V10.81H11.0871V12.06ZM6.90711 3.8V3.76C6.90711 2.06 6.90711 1.43 9.23711 1.43H10.7571C13.0871 1.43 13.0871 2.07 13.0871 3.76V3.81H6.90711V3.8Z" fill="#0054A6"/>
<path d="M18.8689 11.9649C18.9498 11.9265 19.0393 11.91 19.1285 11.9172C19.2178 11.9244 19.3035 11.9549 19.3772 12.0059C19.4508 12.0568 19.5097 12.1262 19.5479 12.2072C19.5862 12.2881 19.6024 12.3777 19.5949 12.4669L19.2349 16.4209C19.0249 18.4209 18.2049 20.4609 13.8049 20.4609H6.18592C1.78592 20.4609 0.965917 18.4209 0.755917 16.4309L0.415918 12.6829C0.408349 12.5946 0.424024 12.5059 0.461384 12.4255C0.498744 12.3451 0.556488 12.2759 0.62888 12.2247C0.701272 12.1736 0.785791 12.1422 0.874038 12.1338C0.962286 12.1255 1.05119 12.1403 1.13192 12.1769C2.27192 12.6929 4.37392 13.6069 5.67292 13.9469C5.75399 13.9689 5.8292 14.0086 5.89317 14.063C5.95713 14.1175 6.00827 14.1854 6.04292 14.2619C6.64992 15.5599 7.96592 16.2509 9.86692 16.2509C11.7489 16.2509 13.0819 15.5329 13.6909 14.2319C13.7256 14.1555 13.7768 14.0876 13.8407 14.0331C13.9047 13.9787 13.9799 13.939 14.0609 13.9169C15.4399 13.5539 17.6789 12.5319 18.8709 11.9649H18.8689Z" fill="#0054A6"/>
</svg>
