<svg xmlns="http://www.w3.org/2000/svg" viewBox="0 0 448 512" width="50" height="50">
  <path d="M128 0c17.7 0 32 14.3 32 32l0 32 128 0 0-32c0-17.7 14.3-32 32-32s32 14.3 32 32l0 32 48 0c26.5 0 48 21.5 48 48l0 48L0 160l0-48C0 85.5 21.5 64 48 64l48 0 0-32c0-17.7 14.3-32 32-32zM0 192l448 0 0 272c0 26.5-21.5 48-48 48L48 512c-26.5 0-48-21.5-48-48L0 192zM64 272a16 16 0 1 0 0 32h32a16 16 0 1 0 0-32H64zm128 0a16 16 0 1 0 0 32h32a16 16 0 1 0 0-32h-32zm144 0a16 16 0 1 0 0 32h32a16 16 0 1 0 0-32h-32zm-208 112a16 16 0 1 0 0 32h32a16 16 0 1 0 0-32h-32zm144 0a16 16 0 1 0 0 32h32a16 16 0 1 0 0-32h-32zm112 0a16 16 0 1 0 0 32h32a16 16 0 1 0 0-32h-32z" fill="#0054A6"/>
  <circle cx="80" cy="272" r="16" fill="#FFFFFF"/>
  <circle cx="192" cy="272" r="16" fill="#FFFFFF"/>
  <circle cx="336" cy="272" r="16" fill="#FFFFFF"/>
  <circle cx="80" cy="400" r="16" fill="#FFFFFF"/>
  <circle cx="192" cy="400" r="16" fill="#FFFFFF"/>
  <circle cx="336" cy="400" r="16" fill="#FFFFFF"/>
</svg>
