<svg width="28" height="24" viewBox="0 0 28 24" fill="none" xmlns="http://www.w3.org/2000/svg">
<path fill-rule="evenodd" clip-rule="evenodd" d="M28.0001 17.909V5.64678C28 4.02198 26.6827 2.70434 25.058 2.70456H17.1582H16.2133C16.2133 2.70456 15.6555 2.70271 14.8728 2.70455H13.695C12.913 2.70271 12.25 2.70463 12.25 2.70463L11.4301 2.70456H2.94158C1.31678 2.7047 -0.000212254 4.02198 2.56586e-08 5.64678V17.9101C0.000212401 19.5348 1.31749 20.8518 2.94222 20.8516H25.0589C26.6837 20.8513 28.0005 19.5338 28.0001 17.909ZM11.1618 15.1804C11.1616 13.3139 9.64837 11.8009 7.7818 11.8011H7.78145C5.91495 11.8013 4.4019 13.3145 4.40211 15.1811V16.1765H11.1618V15.1804ZM7.78172 11.801C9.00746 11.801 10.0011 10.8112 10.0011 9.59015C10.0011 8.36911 9.00746 7.37926 7.78172 7.37926C6.55599 7.37926 5.56234 8.36911 5.56234 9.59015C5.56234 10.8112 6.55599 11.801 7.78172 11.801ZM14.8845 9.00001H24.4076C24.5647 9.00001 24.7154 8.93758 24.8266 8.82646C24.9377 8.71534 25.0001 8.56462 25.0001 8.40747C25.0001 8.25032 24.9377 8.09961 24.8266 7.98849C24.7154 7.87737 24.5647 7.81494 24.4076 7.81494H14.8845C14.5572 7.81494 14.2919 8.08021 14.2919 8.40747C14.2919 8.73474 14.5572 9.00001 14.8845 9.00001ZM14.8844 12.5H24.4076C24.7348 12.5 25.0001 12.2347 25.0001 11.9075C25.0001 11.5802 24.7348 11.3149 24.4076 11.3149H14.8844C14.5571 11.3149 14.2919 11.5802 14.2919 11.9075C14.2919 12.2347 14.5571 12.5 14.8844 12.5ZM14.8845 16H24.4076C24.5647 16 24.7154 15.9376 24.8266 15.8264C24.9377 15.7153 25.0001 15.5646 25.0001 15.4075C25.0001 15.2503 24.9377 15.0996 24.8266 14.9885C24.7154 14.8774 24.5647 14.8149 24.4076 14.8149H14.8845C14.5572 14.8149 14.2919 15.0802 14.2919 15.4075C14.2919 15.7347 14.5572 16 14.8845 16Z" fill="#0054A6"/>
</svg>
