<svg width="16" height="16" viewBox="0 0 16 16" fill="none" xmlns="http://www.w3.org/2000/svg">
<g id="icons">
<path id="Vector" d="M8.00001 1.33337C4.32668 1.33337 1.33334 4.32671 1.33334 8.00004C1.33334 11.6734 4.32668 14.6667 8.00001 14.6667C11.6733 14.6667 14.6667 11.6734 14.6667 8.00004C14.6667 4.32671 11.6733 1.33337 8.00001 1.33337ZM10.9 10.38C10.8666 10.4369 10.8223 10.4865 10.7696 10.526C10.7169 10.5655 10.6568 10.5942 10.5929 10.6103C10.529 10.6264 10.4626 10.6297 10.3974 10.6199C10.3323 10.6102 10.2697 10.5875 10.2133 10.5534L8.14668 9.32004C7.63334 9.01337 7.25334 8.34004 7.25334 7.74671V5.01337C7.25334 4.74004 7.48001 4.51337 7.75334 4.51337C8.02668 4.51337 8.25334 4.74004 8.25334 5.01337V7.74671C8.25334 7.98671 8.45334 8.34004 8.66001 8.46004L10.7267 9.69337C10.9667 9.83337 11.0467 10.14 10.9 10.38Z" fill="#A3A3A3"/>
</g>
</svg>
