<svg version="1.2" xmlns="http://www.w3.org/2000/svg" viewBox="0 0 44 44" width="44" height="44">
	<title>damsen_logo-svg</title>
	<style>
		.s0 { fill: #9fd18b } 
		.s1 { fill: none;stroke: #ffffff;stroke-width: 4 } 
		.s2 { fill: #009252 } 
		.s3 { fill: #006c3a } 
		.s4 { fill: #ffffff } 
		.s5 { fill: #ec008c } 
		.s6 { fill: #000000 } 
	</style>
	<g id="Frame">
		<path class="s0" d="m22 4c9.9 0 18 8.1 18 18 0 9.9-8.1 18-18 18-9.9 0-18-8.1-18-18 0-9.9 8.1-18 18-18z"/>
		<path class="s1" d="m22 2c11 0 20 9 20 20 0 11-9 20-20 20-11 0-20-9-20-20 0-11 9-20 20-20z"/>
		<g id="Group 11">
			<path id="Vector" fill-rule="evenodd" class="s0" d="m22 7.8c9.9 0 18 6.4 18 14.2 0 7.8-8.1 14.2-18 14.2-9.9 0.1-18-6.4-18-14.2 0-7.8 8.1-14.3 18-14.3z"/>
			<path id="Vector_2" fill-rule="evenodd" class="s2" d="m26.7 8.9c19.6 9 6.4 24.2-2.4 15.8 7.5-2 8.6-7.8 2.4-15.8z"/>
			<path id="Vector_3" fill-rule="evenodd" class="s2" d="m17.4 8.9c-18.4 8.4-8 22.2 0.6 17.2 0.4 1.2 1.3 2.3 2.3 3.2h2.2c-1.7-0.9-2.8-2.1-3.3-4.1q0.3-0.2 0.6-0.5c-7.5-2-8.6-7.8-2.4-15.8z"/>
			<path id="Vector_4" fill-rule="evenodd" class="s2" d="m21.1 24.8c0.6 1.7 1.5 2.8 2.6 3.5l0.9-0.9c-0.8-0.5-1.6-1.4-2.2-2.6z"/>
			<path id="Vector_5" fill-rule="evenodd" class="s3" d="m34.2 29.3l0.4-0.3v-0.1h0.1l0.1-0.1h0.1 0.1 0.1 0.1 0.1 0.1 0.1 0.1 0.1v0.1h0.1 0.1l0.1 0.1h0.1l0.1 0.1h0.1l0.1 0.1h0.1l0.1 0.1v0.1 0.1 0.1h-0.1-0.1v-0.1h-0.1-0.1l-0.1-0.1h-0.1-0.1l-0.1-0.1h-0.1l-0.1-0.1h-0.1-0.1-0.1v-0.1h-0.1-0.1v0.1h-0.1-0.1l-0.1 0.1 0.8 0.8 0.1 0.1v0.1h-0.1v0.1h-0.1-0.1-0.1zm-1.1-1.2l1.1 1.1 0.3-0.3 0.1-0.1 0.1-0.1v-0.1-0.1l0.1-0.1v-0.1-0.1-0.1l-0.1-0.1v-0.1-0.1-0.1-0.1h-0.1v-0.1-0.1l-0.1-0.1v-0.1l-0.1-0.1-0.1-0.1h-0.1-0.1v0.1h-0.1l0.1 0.1v0.1l0.1 0.1v0.1 0.1 0.1h0.1v0.1 0.1 0.1l0.1 0.1v0.1 0.1 0.1h-0.1v0.1 0.1h-0.1v0.1l-0.8-0.8-0.1-0.1h-0.1v0.1h-0.1v0.1 0.1zm3.9 0.8h-0.1l-0.1-0.1v-0.1h-0.1-0.1v-0.1h-0.1-0.1v-0.1h-0.1-0.1v-0.1h-0.1-0.1-0.1v-0.1h-0.1-0.1-0.1l-0.1-0.1h-0.1-0.1v-0.1-0.1-0.1h-0.1v-0.1-0.1-0.1-0.1-0.1l-0.1-0.1v-0.1-0.1h-0.1v-0.1l-0.1-0.1v-0.1h-0.1v-0.1h-0.1v-0.1h-0.1-0.1v0.1h-0.1v0.1 0.1l0.1 0.1 0.1 0.1v0.1h0.1v0.1 0.1l0.1 0.1v0.1 0.1l0.1 0.1v0.1 0.1 0.1 0.1 0.1 0.1l-0.1 0.1v0.1 0.1h0.1 0.1v-0.1h0.1 0.1 0.1 0.1 0.1l0.1 0.1h0.1 0.1 0.1v0.1h0.1 0.1l0.1 0.1h0.1l0.1 0.1h0.1v0.1h0.1l0.1 0.1h0.1 0.1 0.1v-0.1-0.1-0.1zm-4-0.7l-0.1-0.1h-0.1v0.1h-0.1v0.1 0.1l2.3 2.3h0.1v0.1l0.1-0.1h0.1v-0.1-0.1h-0.1zm0.7 1.8h-0.1v-0.1-0.1-0.1-0.1-0.1l-0.1-0.1v-0.1h-0.1v-0.1l-0.1-0.1v-0.1h-0.1-0.1v-0.1h-0.1l-0.1-0.1h-0.1-0.1v-0.1h-0.1-0.1-0.1-0.1-0.1-0.1-0.1v0.1h-0.1-0.1l-0.1 0.1h-0.1v0.1h-0.1v0.1h-0.1v0.1h-0.1v0.1 0.1h-0.1v0.1 0.1 0.1l-0.1 0.1v0.1 0.1h0.1v0.1 0.1 0.1 0.1h0.1v0.1l1.3 1.8v0.1h0.1 0.1l0.1-0.1v-0.1-0.1l-1.2-1.8h-0.1v-0.1l-0.1-0.1v-0.1-0.1-0.1-0.1l0.1-0.1v-0.1l0.1-0.1v-0.1h0.1v-0.1h0.1 0.1v-0.1h0.1 0.1 0.1 0.1 0.1 0.1 0.1l0.1 0.1h0.1v0.1h0.1v0.1h0.1v0.1h0.1v0.1 0.1 0.1h0.1v0.1 0.1 0.1h-0.1v0.1l-0.1 0.1h0.1 0.1 0.1 0.1 0.1v0.1h0.1 0.1v0.1h0.1v0.1h0.1l0.4 0.6v0.1h0.1 0.1l0.1-0.1v-0.1-0.1l-0.4-0.6h-0.1v-0.1h-0.1v-0.1h-0.1v-0.1h-0.1-0.1v-0.1zm-0.8 0.5h0.1 0.1v-0.1h0.1 0.1 0.1l0.1 0.1h0.1l0.1 0.1 0.1 0.1 0.4 0.6v0.1 0.1h-0.1v0.1h-0.1v-0.1h-0.1l-0.4-0.6h-0.1v-0.1h-0.1-0.1-0.1l-0.4 0.3 0.5 0.8h0.1v0.1h-0.1v0.1h-0.1-0.1-0.1l-0.7-1.1zm-0.2-0.1l-0.6 0.4-0.4-0.6h-0.1v-0.1-0.1-0.1h-0.1v-0.1l0.1-0.1v-0.1-0.1l0.1-0.1 0.1-0.1 0.1-0.1h0.1 0.1v-0.1h0.1 0.1 0.1v0.1h0.1 0.1 0.1v0.1h0.1l0.1 0.1v0.1h0.1v0.1 0.1 0.1h0.1v0.1h-0.1v0.1 0.1 0.1h-0.1v0.1h-0.1v0.1h-0.1zm-0.5-0.1l-0.2-0.3v-0.1-0.1-0.1-0.1h0.1v-0.1h0.1 0.1 0.1 0.1v0.1h0.1v0.1h0.1v0.1 0.1 0.1h-0.1v0.1h-0.1zm-1.6 0l1.7 2.1v0.1 0.1h-0.1v0.1h-0.1-0.1v-0.1l-1.7-2.1h-0.1v-0.1h-0.1-0.1-0.1-0.1-0.1-0.1v0.1h-0.1v0.1h-0.1v0.1 0.1 0.1l0.6 2.6v0.1l-0.1 0.1h-0.1l-0.1-0.1v-0.1l-0.6-2.5-0.1-0.1v-0.1-0.1-0.1h0.1v-0.1-0.1h0.1v-0.1h0.1v-0.1h0.1v-0.1h0.1 0.1v-0.1h0.1 0.1 0.1 0.1 0.1 0.1l0.1 0.1h0.1v0.1h0.1v0.1zm0.6 1.4l-1.2 0.6-0.4-1.5v-0.1-0.1h0.1v-0.1h0.1v-0.1h0.1 0.1 0.1v0.1h0.1v0.1zm0 0.5l-0.7 0.3 0.1 0.6v0.1 0.1h-0.1v0.1h-0.1v-0.1h-0.1v-0.1l-0.3-0.9 1.3-0.6 0.6 0.8v0.1h0.1l-0.1 0.1v0.1h-0.1-0.1l-0.1-0.1zm-0.9-0.5l0.3-0.2-0.5-0.6zm-2.5 1.3l0.3 0.9v0.1 0.1h-0.1v0.1h-0.1-0.1v-0.1h-0.1v-0.1l-0.4-1.2 0.7-0.2h0.1 0.1v-0.1h0.1 0.1v-0.1l0.1-0.1v-0.1h0.1v-0.1-0.1h0.1v-0.1-0.1-0.1-0.1h-0.1v-0.1-0.1h-0.1v-0.1l-0.1-0.1h-0.1v-0.1h-0.1l-0.1-0.1h-0.1-0.1-0.1-0.1-0.1-0.1l-0.1 0.1h-0.1v0.1h-0.1l-0.1 0.1v0.1h-0.1v0.1 0.1h-0.1v0.1 0.1 0.1 0.1h0.1l0.6 2.1v0.1h-0.1v0.1h-0.1-0.1v-0.1h-0.1l-0.6-2.1v-0.1h-0.1v-0.1-0.1-0.1-0.1h0.1v-0.1-0.1-0.1h0.1v-0.1-0.1h0.1v-0.1h0.1v-0.1h0.1v-0.1h0.1 0.1v-0.1h0.1 0.1l0.1-0.1h0.1 0.1 0.1 0.1 0.1 0.1l0.1 0.1h0.1 0.1v0.1h0.1 0.1v0.1h0.1v0.1h0.1v0.1h0.1v0.1 0.1h0.1v0.1 0.1 0.1l0.1 0.1v0.1 0.1h-0.1v0.1 0.1 0.1l-0.1 0.1v0.1l-0.1 0.1-0.1 0.1-0.1 0.1h-0.1v0.1h-0.1l-0.1 0.1h-0.1zm0.2-0.5v-0.1h0.1 0.1v-0.1h0.1v-0.1h0.1v-0.1h0.1v-0.1-0.1-0.1-0.1-0.1-0.1h-0.1v-0.1-0.1h-0.1v-0.1h-0.1-0.1v-0.1h-0.1-0.1-0.1-0.1-0.1-0.1-0.1v0.1h-0.1l-0.1 0.1v0.1h-0.1v0.1l-0.1 0.1v0.1 0.1 0.1 0.1l0.2 0.7zm-0.4-0.3l0.3-0.1h0.1 0.1v-0.1h0.1v-0.1-0.1-0.1l-0.1-0.1v-0.1h-0.1-0.1-0.1-0.1-0.1v0.1h-0.1v0.1 0.1 0.1zm-2.2 0.2l0.2 1.9v0.1 0.1h-0.1-0.1-0.1-0.1v-0.1l-0.2-2v-0.1-0.1l-0.1-0.1v-0.1h-0.1v-0.1l-0.1-0.1h-0.1v-0.1h-0.1v-0.1h-0.1-0.1-0.1v-0.1h-0.1-0.1-0.1-0.1v0.1h-0.1-0.1-0.1v0.1h-0.1-0.1v0.1h-0.1v0.1h-0.1v0.1h-0.1v0.1 0.1h-0.1v0.1 0.1 0.1 0.1l0.2 2v0.1h-0.1l-0.1 0.1-0.1-0.1h-0.1v-0.1l-0.2-2v-0.1-0.1-0.1-0.1h0.1v-0.1-0.1l0.1-0.1v-0.1h0.1v-0.1l0.1-0.1 0.1-0.1 0.1-0.1h0.1v-0.1h0.1 0.1v-0.1h0.1 0.1 0.1 0.1 0.1 0.1 0.1 0.1 0.1 0.1 0.1v0.1h0.1 0.1v0.1h0.1l0.1 0.1h0.1v0.1h0.1v0.1h0.1v0.1 0.1h0.1v0.1 0.1h0.1v0.1 0.1 0.1zm-0.5 0v-0.1-0.1h-0.1v-0.1-0.1h-0.1v-0.1h-0.1v-0.1h-0.1v-0.1h-0.1-0.1v-0.1h-0.1-0.1-0.1-0.1-0.1-0.1v0.1h-0.1-0.1v0.1h-0.1-0.1v0.1h-0.1v0.1 0.1h-0.1v0.1 0.1h-0.1v0.1 0.1 0.1l0.2 1.9v0.1h0.1v0.1h0.1 0.1v-0.1h0.1v-0.1l-0.2-2v-0.1-0.1h0.1v-0.1l0.1-0.1h0.1v-0.1h0.1 0.1 0.1 0.1 0.1l0.1 0.1h0.1v0.1h0.1v0.1 0.1l0.2 2v0.1h0.1l0.1 0.1 0.1-0.1h0.1v-0.1zm-3.5 2.2h0.7 0.1 0.1v-0.1-0.1-0.1h-0.1l-0.8-0.1h-0.1-0.1-0.1v-0.1h-0.1-0.1-0.1v-0.1h-0.1l-0.1-0.1h-0.1v-0.1h-0.1v-0.1h-0.1v-0.1h-0.1v-0.1-0.1h-0.1v-0.1-0.1-0.1h-0.1v-0.1-0.1-0.1-0.1-0.1l0.1-0.1v-0.1-0.1h0.1v-0.1-0.1h0.1v-0.1h0.1v-0.1h0.1v-0.1h0.1 0.1v-0.1h0.1l0.1-0.1h0.1 0.1l0.1-0.1h0.1 0.1 0.1 0.1 0.1l0.7 0.1h0.1v-0.1h0.1v-0.1-0.1l-0.1-0.1h-0.1l-0.7-0.1h-0.1-0.1-0.1-0.1-0.1v0.1h-0.1-0.1-0.1-0.1v0.1h-0.1-0.1v0.1h-0.1-0.1v0.1h-0.1v0.1h-0.1v0.1h-0.1l-0.1 0.1-0.1 0.1v0.1h-0.1v0.1 0.1h-0.1v0.1 0.1l-0.1 0.1v0.1 0.1 0.1 0.1 0.1 0.1 0.1h0.1v0.1 0.1 0.1h0.1v0.1 0.1h0.1v0.1h0.1v0.1l0.1 0.1 0.1 0.1 0.1 0.1h0.1v0.1h0.1l0.1 0.1h0.1 0.1v0.1h0.1 0.1 0.1l0.1 0.1h0.1 0.1zm0.5-1.7v0.1h0.1v0.1 0.1 0.1h-0.1-0.1l-1.2-0.1v0.1h0.1v0.1l0.1 0.1h0.1v0.1h0.1 0.1v0.1h0.1 0.1 0.1l0.8 0.1h0.1v0.1 0.1 0.1h-0.1v0.1h-0.1l-0.7-0.1h-0.1-0.1-0.1v-0.1h-0.1-0.1l-0.1-0.1h-0.1v-0.1h-0.1-0.1v-0.1h-0.1v-0.1l-0.1-0.1v-0.1h-0.1v-0.1-0.1h-0.1v-0.1-0.1-0.1-0.1l1.7 0.1h0.1zm-1.8-0.3v0.1l1.7 0.1h0.1 0.1v-0.1-0.1-0.1h-0.1l-1.2-0.1v-0.1h0.1v-0.1h0.1v-0.1h0.1 0.1v-0.1h0.1 0.1 0.1 0.1 0.1l0.7 0.1h0.1v-0.1h0.1v-0.1-0.1l-0.1-0.1h-0.1l-0.7-0.1h-0.1-0.1-0.1-0.1v0.1h-0.1-0.1-0.1l-0.1 0.1h-0.1l-0.1 0.1h-0.1v0.1h-0.1v0.1h-0.1v0.1 0.1h-0.1v0.1 0.1h-0.1v0.1zm-2 1.6h-0.1v-0.1h-0.1-0.1v-0.1h-0.1-0.1v-0.1h-0.1v-0.1h-0.1v-0.1l-0.1-0.1v-0.1l-0.1-0.1v-0.1l0.1-0.1h0.1 0.1 0.1v0.1 0.1h0.1v0.1h0.1v0.1h0.1v0.1h0.1l0.1 0.1h0.1 0.1 0.1 0.1 0.1 0.1v-0.1h0.1 0.1v-0.1h0.1v-0.1l0.1-0.1v-0.1-0.1h0.1v-0.1-0.1l-0.1-0.1v-0.1-0.1h-0.1v-0.1h-0.1v-0.1h-0.1v-0.1h-0.1v-0.1h-0.1v-0.1h-0.1v-0.1h-0.1v-0.1l-0.1-0.1v-0.1-0.1-0.1-0.1h0.1v-0.1h0.1l0.1-0.1h0.1 0.1 0.1 0.1 0.1 0.1v0.1h0.1v0.1 0.1 0.1h-0.1v0.1h-0.1l-0.1-0.1v-0.1h-0.1-0.1l-0.1 0.1v0.1 0.1h0.1v0.1h0.1l0.1 0.1h0.1v0.1h0.1v0.1h0.1v0.1l0.1 0.1v0.1h0.1v0.1 0.1 0.1 0.1h0.1v0.1h-0.1v0.1 0.1 0.1 0.1h-0.1v0.1 0.1h-0.1v0.1h-0.1v0.1h-0.1v0.1h-0.1-0.1v0.1h-0.1-0.1v0.1h-0.1-0.1-0.1-0.1-0.1zm0.9-3.4h0.1 0.1v0.1h0.1 0.1v0.1h0.1v0.1h0.1v0.1h0.1v0.1 0.1h0.1v0.1 0.1 0.1h-0.1-0.1-0.1-0.1v-0.1-0.1h-0.1v-0.1l-0.1-0.1h-0.1v-0.1h-0.1-0.1l-0.1-0.1h-0.1v0.1h-0.1-0.1-0.1v0.1h-0.1l-0.1 0.1v0.1l-0.1 0.1v0.1 0.1 0.1 0.1h0.1v0.1 0.1h0.1v0.1h0.1v0.1h0.1 0.1v0.1h0.1v0.1h0.1v0.1l0.1 0.1v0.1 0.1h0.1v0.1l-0.1 0.1v0.1 0.1h-0.1v0.1l-0.1 0.1h-0.1v0.1h-0.1-0.1-0.1-0.1-0.1-0.1v-0.1h-0.1-0.1v-0.1h-0.1v-0.1-0.1-0.1-0.1h0.1 0.1l0.1 0.1h0.1v0.1h0.1 0.1 0.1 0.1v-0.1-0.1-0.1-0.1l-0.1-0.1h-0.1v-0.1h-0.1v-0.1h-0.1v-0.1h-0.1v-0.1h-0.1v-0.1h-0.1v-0.1-0.1l-0.1-0.1v-0.1-0.1-0.1-0.1-0.1h0.1v-0.1-0.1h0.1v-0.1-0.1h0.1v-0.1h0.1 0.1v-0.1h0.1l0.1-0.1h0.1 0.1 0.1 0.1 0.1 0.1zm-3.5 2.6l0.9-2v-0.1-0.1h0.1v-0.1-0.1-0.1-0.1-0.1l-0.1-0.1v-0.1-0.1h-0.1v-0.1h-0.1v-0.1l-0.1-0.1-0.1-0.1h-0.1v-0.1h-0.1-0.1l-0.1-0.1h-0.1-0.1-0.1-0.1-0.1-0.1-0.1l-0.1-0.1v-0.1h-0.1v-0.1h-0.1v-0.1h-0.1-0.1v-0.1h-0.1-0.1l-0.1-0.1h-0.1-0.1-0.1-0.1-0.1-0.1v0.1h-0.1-0.1-0.1v0.1h-0.1l-0.1 0.1h-0.1v0.1h-0.1v0.1l-0.1 0.1v0.1l-0.9 2v0.1 0.1h0.1 0.1 0.1v-0.1l0.9-2h0.1v-0.1-0.1h0.1v-0.1h0.1 0.1v-0.1h0.1 0.1 0.1 0.1 0.1 0.1 0.1l0.1 0.1h0.1v0.1h0.1v0.1h0.1v0.1h0.1v0.1 0.1 0.1h0.1 0.1v-0.1h0.1 0.1v-0.1h0.1 0.1 0.1 0.1v0.1h0.1 0.1v0.1h0.1 0.1v0.1h0.1v0.1h0.1v0.1 0.1 0.1h0.1v0.1 0.1h-0.1v0.1 0.1l-0.9 2v0.1 0.1h0.1v0.1h0.1 0.1v-0.1zm0.1-2.4l-0.9 2v0.1 0.1h0.1v0.1h0.1 0.1v-0.1h0.1l0.9-2v-0.1-0.1-0.1-0.1-0.1-0.1h-0.1v-0.1h-0.1v-0.1h-0.1v-0.1h-0.1-0.1v-0.1h-0.1-0.1-0.1l-0.1 0.1h-0.1-0.1v0.1h-0.1v0.1h-0.1v0.1 0.1l-0.9 2h-0.1v0.1h0.1v0.1h0.1 0.1l0.1-0.1 0.9-2v-0.1h0.1l0.1-0.1h0.1 0.1v0.1h0.1l0.1 0.1v0.1 0.1zm-2-0.8l-0.9 2h-0.1v0.1h-0.1-0.1-0.1v-0.1-0.1l0.9-2v-0.1l0.1-0.1 0.1-0.1h0.1v-0.1h0.1 0.1 0.1 0.1 0.1 0.1 0.1v0.1h0.1l0.1 0.1v0.1h0.1v0.1l0.1 0.1v0.1 0.1 0.1l-0.1 0.1-0.9 2v0.1h-0.1-0.1-0.1v-0.1-0.1l0.9-2v-0.1-0.1-0.1h-0.1v-0.1h-0.1v-0.1h-0.1-0.1l-0.1 0.1h-0.1v0.1zm-0.8-1.1v-0.1h0.1v-0.1-0.1-0.1h-0.1v-0.1-0.1l-0.1-0.1v-0.1h-0.1v-0.1h-0.1-0.1v-0.1h-0.1-0.1-0.1v-0.1h-0.1-0.1-0.1v0.1h-0.1-0.1l-0.1 0.1h-0.1l-2 1.8h-0.1v0.1 0.1 0.1h0.1 0.1 0.1l2.1-1.8 0.1-0.1h0.1 0.1 0.1 0.1v0.1h0.1v0.1h0.1v0.1h0.1v0.1 0.1 0.1h-0.1l-1 2.4v0.1h-0.1v0.1h0.1v0.1h0.1 0.1l0.1-0.1zm-1 1.2l0.5-1.4h0.1v-0.1-0.1l-0.1-0.1v-0.1h-0.1-0.1-0.1-0.1-0.1l-1.2 1zm-0.5 0.3l-0.6-0.5-0.5 0.5h-0.1v0.1h-0.1v-0.1h-0.1v-0.1h-0.1v-0.1h0.1v-0.1l0.8-0.6 1.1 0.7-0.4 0.9v0.1h-0.1-0.1-0.1v-0.1h-0.1v-0.1h0.1zm0-1l0.7-0.6-0.4 0.8zm-3.6-1.5h0.1v0.1 0.1h0.1v0.1l0.1 0.1v0.1h0.1v0.1h0.1l0.1 0.1h0.1v0.1h0.1 0.1 0.1v0.1h0.1 0.1 0.1 0.1 0.1 0.1 0.1 0.1v-0.1h0.1 0.1 0.1v-0.1h0.1 0.1v-0.1h0.1v-0.1h0.1v-0.1h0.1v-0.1h0.1v-0.1-0.1h0.1v-0.1-0.1-0.1-0.1h0.1v-0.1-0.1h-0.1v-0.1-0.1-0.1-0.1h-0.1v-0.1-0.1h-0.1v-0.1-0.1h-0.1v-0.1h-0.1v-0.1h-0.1v-0.1h-0.1-0.1v-0.1h-0.1-0.1-0.1-0.1-0.1-0.1-0.1v0.1h-0.1-0.1v0.1l-1.6 1.5v0.1h-0.1-0.1-0.1v-0.1-0.1-0.1l1.6-1.6h0.1v-0.1h0.1 0.1v-0.1h0.1 0.1v-0.1h0.1 0.1 0.1 0.1 0.1 0.1 0.1v0.1h0.1 0.1l0.1 0.1h0.1v0.1h0.1v0.1h0.1v0.1h0.1v0.1h0.1v0.1l0.1 0.1v0.1h0.1v0.1 0.1l0.1 0.1v0.1 0.1 0.1 0.1 0.1 0.1 0.1 0.1 0.1 0.1l-0.1 0.1v0.1l-0.1 0.1v0.1h-0.1v0.1h-0.1v0.1l-0.1 0.1h-0.1v0.1h-0.1v0.1h-0.1-0.1v0.1h-0.1-0.1l-0.1 0.1h-0.1-0.1-0.1-0.1-0.1v0.1h-0.1-0.1l-0.1-0.1h-0.1-0.1-0.1-0.1-0.1v-0.1h-0.1-0.1v-0.1h-0.1-0.1v-0.1h-0.1v-0.1h-0.1v-0.1h-0.1v-0.1h-0.1v-0.1-0.1h-0.1-0.1v-0.1h-0.1v-0.1h0.1v-0.1l0.3-0.3v0.1zm0.1-0.2l1.2-1.2h0.1v-0.1h0.1 0.1 0.1 0.1 0.1 0.1l0.1 0.1h0.1v0.1h0.1l0.1 0.1 0.1 0.1v0.1h0.1v0.1l0.1 0.1v0.1 0.1 0.1h0.1v0.1 0.1h-0.1v0.1 0.1 0.1 0.1h-0.1v0.1 0.1h-0.1v0.1h-0.1v0.1h-0.1v0.1h-0.1v0.1h-0.1-0.1v0.1h-0.1-0.1-0.1l-0.1 0.1h-0.1-0.1-0.1-0.1v-0.1h-0.1-0.1-0.1-0.1v-0.1h-0.1l-0.1-0.1h-0.1v-0.1h-0.1v-0.1h-0.1v-0.1-0.1h-0.1v-0.1-0.1h-0.1v-0.1-0.1zm0.4 0.1l1.1-1h0.1 0.1 0.1l0.1 0.1 0.1 0.1v0.1h0.1v0.1h0.1v0.1 0.1 0.1h0.1v0.1 0.1 0.1h-0.1v0.1 0.1h-0.1v0.1h-0.1v0.1h-0.1v0.1h-0.1v0.1h-0.1-0.1-0.1-0.1-0.1-0.1-0.1-0.1-0.1v-0.1h-0.1v-0.1h-0.1-0.1v-0.1l-0.1-0.1v-0.1h-0.1z"/>
			<path id="Vector_6" fill-rule="evenodd" class="s3" d="m8.5 16.2c1.4-0.2 4.4 0.6 5.1 1.7v1.2c-0.4-0.8-3-2.6-5.1-2.9z"/>
			<path id="Vector_7" fill-rule="evenodd" class="s3" d="m7.9 21.1c1.1-1 4.9-1.4 6.1-0.7l0.8 1.5c-0.4-0.8-4.4-1.9-6.9-0.8z"/>
			<path id="Vector_8" fill-rule="evenodd" class="s3" d="m10.2 24.7c0.7-1.3 4.3-2.3 5.8-1.8l1.8 1.1c-0.9-0.6-5.7-0.5-7.6 0.7z"/>
			<path id="Vector_9" fill-rule="evenodd" class="s3" d="m33.8 24.7c-0.6-1.2-4.2-2.3-5.7-1.8l-1.8 1.1c0.8-0.5 5.7-0.5 7.5 0.7z"/>
			<path id="Vector_10" fill-rule="evenodd" class="s3" d="m35.5 16.2c-1.3-0.2-4.3 0.6-5 1.7v1.2c0.4-0.8 3-2.6 5-2.9z"/>
			<path id="Vector_11" fill-rule="evenodd" class="s3" d="m36.2 21.1c-1.1-1-5-1.4-6.1-0.7l-0.8 1.5c0.3-0.8 4.3-1.9 6.9-0.8z"/>
			<path id="Vector_12" fill-rule="evenodd" class="s3" d="m11.5 13.3q1.5 0.5 2.5 1.6l-0.2 0.6c-0.5-0.7-1.4-1.4-2.3-2.2z"/>
			<path id="Vector_13" fill-rule="evenodd" class="s3" d="m32.6 13.3q-1.5 0.5-2.5 1.6l0.2 0.6c0.5-0.7 1.3-1.4 2.3-2.2z"/>
			<path id="Vector_14" fill-rule="evenodd" class="s4" d="m25.1 9.9l-0.2 0.2-0.1 0.1-0.2 0.1-0.1 0.1-0.2 0.1-0.1 0.1-0.2 0.1-0.1-0.1v-0.1l-0.1-0.1-0.1-0.1-0.1-0.1v-0.1l-0.1-0.1-0.1-0.1-0.1-0.1v-0.1l-0.1-0.1h-0.1v-0.1l-0.1-0.1-0.1-0.1-0.1-0.1-0.1-0.1v-0.1h-0.1l-0.1-0.1v-0.1h-0.1l-0.1-0.1-0.3-0.4-0.4 0.4v0.1h-0.1l-0.1 0.1-0.1 0.1-0.1 0.1-0.1 0.1v0.1h-0.1l-0.1 0.1v0.1l-0.1 0.1-0.1 0.1-0.1 0.1v0.1l-0.1 0.1h-0.1v0.1l-0.1 0.1v0.1l-0.1 0.1-0.1 0.1-0.1 0.1v0.1h-0.1l-0.1-0.1-0.2-0.1-0.1-0.1-0.1-0.1-0.2-0.1-0.1-0.1-0.2-0.1-0.1-0.1-0.2-0.1-0.1-0.2-0.2-0.1-0.1-0.1-0.2-0.1-0.1-0.1-0.5-0.3-0.9 1.1-0.6 0.8-0.5 0.7-0.5 0.8-0.4 0.8-0.4 0.7-0.3 0.7-0.2 0.7-0.3 0.7-0.1 0.7-0.1 0.7-0.1 0.6v0.7 0.6l0.1 0.6 0.2 0.5 0.2 0.6 0.2 0.5 0.4 0.5 0.3 0.5 0.4 0.4 0.4 0.4 0.5 0.4 0.6 0.4 0.5 0.3 0.7 0.3 0.6 0.2 0.7 0.2 0.7 0.2 0.8 0.2 0.8 0.1h0.9 0.9l0.8-0.1 0.8-0.2 0.7-0.2 0.7-0.2 0.7-0.2 0.6-0.3 0.6-0.3 0.5-0.4 0.5-0.4 0.4-0.4 0.5-0.4 0.3-0.5 0.3-0.5 0.2-0.5 0.2-0.6 0.2-0.5 0.1-0.6v-0.6-0.7-0.6l-0.1-0.7-0.2-0.7-0.2-0.7-0.3-0.7-0.3-0.7-0.4-0.7-0.4-0.8-0.5-0.8-0.5-0.7-0.6-0.8-0.9-1.1-0.4 0.3-0.2 0.1-0.1 0.1-0.2 0.1-0.2 0.1-0.1 0.1-0.2 0.1z"/>
			<path id="Vector_15" fill-rule="evenodd" class="s5" d="m26.6 9.4c-1.8 1.2-3.3 2.2-4.6 3.7-1.4-1.5-2.9-2.5-4.5-3.7-7.1 8.5-4.6 15.1 4.5 15.8 9.1-0.7 11.6-7.3 4.6-15.8z"/>
			<path id="Vector_16" fill-rule="evenodd" class="s6" d="m22 25.4l-0.3-0.1h-0.3l-0.2-0.1-0.3-0.1h-0.2l-0.2-0.1-0.2-0.1-0.2-0.1-0.2-0.1-0.2-0.1-0.2-0.1-0.2-0.2-0.1-0.1-0.2-0.2-0.1-0.1-0.2-0.2-0.1-0.2-0.1-0.1-0.1-0.2-0.1-0.2-0.1-0.2-0.1-0.3v-0.2l-0.1-0.2v-0.3l-0.1-0.2v-0.3-0.2-0.3-0.3-0.3l0.1-0.3v-0.3l0.1-0.2v-0.3l0.1-0.2 0.1-0.3 0.1-0.2v-0.2l0.1-0.3 0.1-0.2 0.1-0.3 0.1-0.2 0.1-0.2 0.1-0.2 0.1-0.3 0.1-0.2 0.1-0.2 0.2-0.2 0.1-0.2 0.1-0.2 0.2-0.2 0.1-0.2 0.1-0.3 0.2-0.2 0.1-0.2 0.2-0.2 0.2-0.1 0.1-0.2 0.2-0.2 0.2-0.2 0.1-0.2 0.2-0.2 0.4-0.4 0.3 0.4 0.2 0.2 0.2 0.2 0.2 0.2 0.1 0.2 0.2 0.2 0.2 0.1 0.1 0.2 0.2 0.2 0.1 0.2 0.2 0.3 0.1 0.2 0.1 0.2 0.2 0.2 0.1 0.2 0.1 0.2 0.1 0.2 0.2 0.2 0.1 0.3 0.1 0.2 0.1 0.2 0.1 0.2 0.1 0.3 0.1 0.2v0.3l0.1 0.2 0.1 0.2 0.1 0.3v0.2l0.1 0.3v0.2l0.1 0.3v0.3 0.3l0.1 0.3v0.3l-0.1 0.2v0.3 0.2 0.3l-0.1 0.2-0.1 0.2v0.3l-0.1 0.2-0.1 0.2-0.1 0.2-0.1 0.1-0.2 0.2-0.1 0.2-0.1 0.1-0.2 0.2-0.2 0.1-0.1 0.2-0.2 0.1-0.2 0.1-0.2 0.1-0.2 0.1-0.2 0.1-0.3 0.1h-0.2l-0.2 0.1-0.3 0.1h-0.2z"/>
			<path id="Vector_17" fill-rule="evenodd" class="s4" d="m22 25.5h-0.3l-0.3-0.1-0.2-0.1h-0.3l-0.2-0.1-0.3-0.1-0.2-0.1-0.2-0.1-0.2-0.1-0.2-0.1-0.2-0.1-0.1-0.2-0.2-0.1-0.2-0.2-0.1-0.1-0.2-0.2-0.1-0.2-0.1-0.2-0.1-0.2-0.1-0.2-0.1-0.2-0.1-0.2-0.1-0.3v-0.2l-0.1-0.3v-0.2-0.3-0.2-0.3-0.3-0.3l0.1-0.3v-0.3l0.1-0.2v-0.3l0.1-0.3v-0.2l0.1-0.2 0.1-0.3 0.1-0.2 0.1-0.3 0.1-0.2 0.1-0.2 0.1-0.3 0.1-0.2 0.1-0.2 0.1-0.2 0.1-0.3 0.1-0.2 0.2-0.2 0.1-0.2 0.1-0.2 0.2-0.2 0.1-0.2 0.2-0.2 0.1-0.2 0.2-0.2 0.2-0.2 0.1-0.2 0.2-0.2 0.2-0.2 0.1-0.2 0.2-0.2 0.5-0.5 0.4 0.5 0.2 0.2 0.2 0.2 0.2 0.2 0.1 0.2 0.2 0.2 0.2 0.2 0.1 0.2 0.2 0.2 0.1 0.2 0.2 0.2 0.1 0.2 0.2 0.2 0.1 0.2 0.1 0.2 0.1 0.2 0.2 0.3 0.1 0.2 0.1 0.2 0.1 0.2 0.1 0.3 0.1 0.2 0.1 0.2 0.1 0.3 0.1 0.2v0.3l0.1 0.2 0.1 0.2 0.1 0.3v0.3l0.1 0.2v0.3l0.1 0.3v0.3 0.3 0.3 0.2 0.3l-0.1 0.2v0.3l-0.1 0.2v0.3l-0.1 0.2-0.1 0.2-0.1 0.2-0.1 0.2-0.1 0.2-0.2 0.2-0.1 0.2-0.2 0.1-0.1 0.2-0.2 0.1-0.2 0.2-0.1 0.1-0.3 0.1-0.1 0.1-0.3 0.1-0.2 0.1-0.2 0.1-0.2 0.1h-0.3l-0.2 0.1-0.3 0.1z"/>
			<path id="Vector_18" fill-rule="evenodd" class="s5" d="m22 25.1c-2.7-0.4-4.2-2-3.8-5.2 0.5-2.6 1.9-4.9 3.8-6.8 1.9 1.9 3.3 4.2 3.7 6.8 0.4 3.2-1 4.8-3.7 5.2z"/>
			<path id="Vector_19" fill-rule="evenodd" class="s5" d="m20.3 11q0.7-1.1 1.7-2.1 1 1 1.7 2.1l-0.1 0.1-0.2 0.1-0.1 0.1-0.1 0.1-0.2 0.1-0.1 0.2-0.1 0.1-0.2 0.1-0.1 0.1-0.1 0.2-0.2 0.1-0.1 0.1-0.1 0.1-0.1-0.1-0.2-0.1-0.1-0.1-0.1-0.2-0.2-0.1-0.1-0.1-0.1-0.1-0.2-0.2-0.1-0.1-0.1-0.1-0.2-0.1-0.1-0.1z"/>
		</g>
	</g>
</svg>