<svg version="1.2" xmlns="http://www.w3.org/2000/svg" viewBox="0 0 20 20" width="20" height="20">
	<title>facebook-svg</title>
	<style>
		.s0 { fill: #ffffff } 
	</style>
	<path fill-rule="evenodd" class="s0" d="m0.5 2.2c-0.5 0.9-0.5 2.1-0.5 4.5v6.6c0 2.4 0 3.6 0.5 4.5 0.4 0.7 1 1.3 1.7 1.7 0.9 0.5 2.1 0.5 4.5 0.5h1.6v-7.2h-2.5v-2.8h2.5v-2.2c0-2.5 1.6-3.9 3.9-3.9 0.7 0 1.5 0.1 2.2 0.2v2.6h-1.2c-1.3 0-1.5 0.6-1.5 1.4v1.9h2.6l-0.4 2.8h-2.2v7.2h1.6c2.4 0 3.6 0 4.5-0.5 0.7-0.4 1.3-1 1.7-1.7 0.5-0.9 0.5-2.1 0.5-4.5v-6.6c0-2.4 0-3.6-0.5-4.5-0.4-0.7-1-1.3-1.7-1.7-0.9-0.5-2.1-0.5-4.5-0.5h-6.6c-2.4 0-3.6 0-4.5 0.5-0.7 0.4-1.3 1-1.7 1.7z"/>
</svg>