<svg xmlns="http://www.w3.org/2000/svg" width="20" height="20" viewBox="0 0 20 20" fill="none">
<path d="M17.7499 6.31669H13.0999C12.7749 6.31669 12.5166 6.05836 12.5166 5.73336C12.5166 5.40836 12.7749 5.15002 13.0999 5.15002H17.7499C18.0749 5.15002 18.3333 5.40836 18.3333 5.73336C18.3333 6.05836 18.0749 6.31669 17.7499 6.31669Z" fill="#0054A6"/>
<path d="M5.35008 6.31669H2.25008C1.92508 6.31669 1.66675 6.05836 1.66675 5.73336C1.66675 5.40836 1.92508 5.15002 2.25008 5.15002H5.35008C5.67508 5.15002 5.93341 5.40836 5.93341 5.73336C5.93341 6.05836 5.66675 6.31669 5.35008 6.31669Z" fill="#0054A6"/>
<path d="M8.45011 9.02498C10.2681 9.02498 11.7418 7.55125 11.7418 5.73332C11.7418 3.91538 10.2681 2.44165 8.45011 2.44165C6.63218 2.44165 5.15845 3.91538 5.15845 5.73332C5.15845 7.55125 6.63218 9.02498 8.45011 9.02498Z" fill="#0054A6"/>
<path d="M17.75 14.8417H14.65C14.325 14.8417 14.0667 14.5833 14.0667 14.2583C14.0667 13.9333 14.325 13.675 14.65 13.675H17.75C18.075 13.675 18.3333 13.9333 18.3333 14.2583C18.3333 14.5833 18.075 14.8417 17.75 14.8417Z" fill="#0054A6"/>
<path d="M6.90008 14.8417H2.25008C1.92508 14.8417 1.66675 14.5833 1.66675 14.2583C1.66675 13.9333 1.92508 13.675 2.25008 13.675H6.90008C7.22508 13.675 7.48341 13.9333 7.48341 14.2583C7.48341 14.5833 7.21675 14.8417 6.90008 14.8417Z" fill="#0054A6"/>
<path d="M11.55 17.5583C13.3679 17.5583 14.8416 16.0846 14.8416 14.2666C14.8416 12.4487 13.3679 10.975 11.55 10.975C9.73203 10.975 8.2583 12.4487 8.2583 14.2666C8.2583 16.0846 9.73203 17.5583 11.55 17.5583Z" fill="#0054A6"/>
</svg>