<svg width="24" height="24" viewBox="0 0 24 24" fill="none" xmlns="http://www.w3.org/2000/svg">
<g id="icons">
<path id="Vector" d="M12 4.5C12.9283 4.5 13.8185 4.86875 14.4749 5.52513C15.1313 6.1815 15.5 7.07174 15.5 8C15.5 8.92826 15.1313 9.8185 14.4749 10.4749C13.8185 11.1313 12.9283 11.5 12 11.5C11.0717 11.5 10.1815 11.1313 9.52513 10.4749C8.86875 9.8185 8.5 8.92826 8.5 8C8.5 7.07174 8.86875 6.1815 9.52513 5.52513C10.1815 4.86875 11.0717 4.5 12 4.5ZM5 7C5.56 7 6.08 7.15 6.53 7.42C6.38 8.85 6.8 10.27 7.66 11.38C7.16 12.34 6.16 13 5 13C4.20435 13 3.44129 12.6839 2.87868 12.1213C2.31607 11.5587 2 10.7956 2 10C2 9.20435 2.31607 8.44129 2.87868 7.87868C3.44129 7.31607 4.20435 7 5 7ZM19 7C19.7956 7 20.5587 7.31607 21.1213 7.87868C21.6839 8.44129 22 9.20435 22 10C22 10.7956 21.6839 11.5587 21.1213 12.1213C20.5587 12.6839 19.7956 13 19 13C17.84 13 16.84 12.34 16.34 11.38C17.2119 10.2544 17.6166 8.8362 17.47 7.42C17.92 7.15 18.44 7 19 7ZM5.5 17.25C5.5 15.18 8.41 13.5 12 13.5C15.59 13.5 18.5 15.18 18.5 17.25V19H5.5V17.25ZM0 19V17.5C0 16.11 1.89 14.94 4.45 14.6C3.86 15.28 3.5 16.22 3.5 17.25V19H0ZM24 19H20.5V17.25C20.5 16.22 20.14 15.28 19.55 14.6C22.11 14.94 24 16.11 24 17.5V19Z" fill="#0054A6"/>
</g>
</svg>
