<svg width="24" height="24" viewBox="0 0 24 24" fill="none" xmlns="http://www.w3.org/2000/svg">
<path d="M12.1207 19.2331C11.5219 19.2331 10.9136 19.2424 10.3149 19.2331C9.76359 19.2238 9.3834 18.935 9.29786 18.432C9.07926 17.1932 8.46146 16.1872 7.62506 15.2557C5.44851 12.8339 5.69563 9.1639 8.14781 7.0122C10.4954 4.96297 14.0882 5.05611 16.3408 7.21713C18.5838 9.36882 18.7454 12.927 16.6639 15.2278C15.8085 16.1686 15.1812 17.1839 14.9626 18.4413C14.877 18.9443 14.4874 19.2145 13.9266 19.2331C13.3183 19.2424 12.7195 19.2331 12.1207 19.2331Z" fill="#0054A6"/>
<path d="M12.1636 20.0975C12.7339 20.0975 13.3042 20.0889 13.8745 20.0975C14.4887 20.1061 14.673 20.3128 14.6993 20.8983C14.7256 21.5526 14.6554 22.1295 13.8921 22.3964C13.7956 22.4309 13.7517 22.6547 13.7078 22.8011C13.5411 23.3349 13.3305 23.5071 12.769 23.5157C12.3478 23.5157 11.9179 23.5243 11.4967 23.5157C10.9527 23.5071 10.707 23.3435 10.5842 22.8355C10.514 22.5514 10.3912 22.3706 10.1016 22.25C9.74189 22.0951 9.59272 21.7593 9.57518 21.3718C9.52253 20.2267 9.6366 20.1061 10.7948 20.1061C11.2598 20.0975 11.7161 20.0975 12.1636 20.0975Z" fill="#0054A6"/>
<path d="M15.797 2.37749C15.9607 2.09679 16.117 1.81183 16.2879 1.53539C16.4794 1.22387 16.8069 1.13274 17.1036 1.29629C17.4002 1.45983 17.5042 1.80254 17.3316 2.11557C17.0075 2.68825 16.6721 3.26368 16.3334 3.82783C16.142 4.13935 15.8039 4.21494 15.5154 4.03736C15.2269 3.85978 15.1367 3.5439 15.3175 3.21683C15.4665 2.9276 15.6375 2.65117 15.797 2.37749Z" fill="#0054A6" stroke="#0054A6"/>
<path d="M6.84528 2.9861C6.67344 2.71035 6.49443 2.43907 6.32978 2.15883C6.14365 1.84413 6.21598 1.51194 6.49911 1.32594C6.78225 1.13994 7.13388 1.20795 7.33008 1.5068C7.68523 2.06073 8.03748 2.62604 8.37826 3.18892C8.56438 3.50363 8.47339 3.83788 8.18167 4.01009C7.88994 4.1823 7.56846 4.11465 7.36366 3.802C7.17746 3.5352 7.01281 3.25497 6.84528 2.9861Z" fill="#0054A6" stroke="#0054A6"/>
<path d="M2.51119 9.64324C2.20306 9.54015 1.89225 9.44509 1.58682 9.33397C1.24286 9.20996 1.08699 8.90783 1.18674 8.58408C1.28649 8.26034 1.60086 8.08876 1.94249 8.19413C2.56912 8.39486 3.20078 8.6062 3.82204 8.82298C4.166 8.94699 4.3088 9.26261 4.19364 9.5812C4.07848 9.89979 3.78757 10.0524 3.43054 9.94191C3.11705 9.85488 2.81161 9.74376 2.51119 9.64324Z" fill="#0054A6" stroke="#0054A6"/>
<path d="M21.8664 9.62785C22.1759 9.52899 22.4879 9.4382 22.7949 9.33128C23.1405 9.212 23.3005 8.91203 23.2052 8.58695C23.1099 8.26187 22.7979 8.08599 22.4549 8.18666C21.8255 8.37878 21.191 8.58144 20.5669 8.78969C20.2212 8.90897 20.0741 9.22259 20.1849 9.54273C20.2957 9.86287 20.5845 10.0195 20.943 9.91388C21.2576 9.83115 21.5646 9.72423 21.8664 9.62785Z" fill="#0054A6" stroke="#0054A6"/>
<path d="M3.46403 15.7903C3.76081 15.6272 4.05368 15.4569 4.35437 15.3009C4.71091 15.1234 5.00555 15.2024 5.17382 15.5085C5.33425 15.8004 5.23607 16.1139 4.89869 16.3086C4.30904 16.642 3.7229 16.9642 3.12543 17.2834C2.77281 17.468 2.41017 17.3707 2.26457 17.0707C2.1268 16.785 2.24765 16.4775 2.58112 16.2757C2.60337 16.2634 2.63305 16.2471 2.65531 16.2349C2.92241 16.0881 3.18951 15.9412 3.46403 15.7903Z" fill="#0054A6" stroke="#0054A6"/>
<path d="M20.9867 15.7903C20.6899 15.6272 20.397 15.4569 20.0963 15.3009C19.7398 15.1234 19.4451 15.2024 19.2769 15.5085C19.1164 15.8004 19.2146 16.1139 19.552 16.3086C20.1416 16.642 20.7278 16.9642 21.3252 17.2834C21.6779 17.468 22.0405 17.3707 22.1861 17.0707C22.3239 16.785 22.203 16.4775 21.8696 16.2757C21.8473 16.2634 21.8176 16.2471 21.7954 16.2349C21.5283 16.0881 21.2612 15.9412 20.9867 15.7903Z" fill="#0054A6" stroke="#0054A6"/>
</svg>
