<svg width="16" height="16" viewBox="0 0 16 16" fill="none" xmlns="http://www.w3.org/2000/svg">
<g id="icons">
<path id="Vector" d="M14.4789 5.45988C13.6902 2.15451 10.6629 0.666382 8.00377 0.666382H7.99625C5.3446 0.666382 2.30986 2.14736 1.52112 5.45272C0.642246 9.14443 3.01596 12.2709 5.16432 14.2384C5.92581 14.9404 6.94401 15.3329 8.00377 15.333C9.02536 15.333 10.047 14.9682 10.8357 14.2384C12.9841 12.2709 15.3578 9.15159 14.4789 5.45988ZM8.00377 9.04427C7.69303 9.04427 7.38534 8.98598 7.09826 8.87272C6.81118 8.75946 6.55033 8.59346 6.33061 8.38419C6.11089 8.17492 5.93659 7.92647 5.81768 7.65305C5.69877 7.37962 5.63756 7.08656 5.63756 6.79061C5.63756 6.49466 5.69877 6.2016 5.81768 5.92817C5.93659 5.65475 6.11089 5.4063 6.33061 5.19703C6.55033 4.98776 6.81118 4.82176 7.09826 4.7085C7.38534 4.59524 7.69303 4.53695 8.00377 4.53695C8.63132 4.53695 9.23317 4.77439 9.67692 5.19703C10.1207 5.61968 10.37 6.1929 10.37 6.79061C10.37 7.38832 10.1207 7.96154 9.67692 8.38419C9.23317 8.80683 8.63132 9.04427 8.00377 9.04427Z" fill="#A3A3A3"/>
</g>
</svg>
