<svg width="24" height="24" viewBox="0 0 24 24" fill="none" xmlns="http://www.w3.org/2000/svg">
<g id="icons">
<path id="Vector" d="M21.7183 8.19024C20.5352 3.2322 15.9944 1 12.0056 1H11.9944C8.01689 1 3.46477 3.22146 2.28167 8.17951C0.963353 13.7171 4.52393 18.4068 7.74647 21.358C8.88869 22.411 10.416 22.9998 12.0056 23C13.538 23 15.0704 22.4527 16.2535 21.358C19.4761 18.4068 23.0366 13.7278 21.7183 8.19024ZM12.0056 13.5668C11.5395 13.5668 11.078 13.4794 10.6474 13.3095C10.2168 13.1396 9.82548 12.8906 9.4959 12.5767C9.16631 12.2628 8.90487 11.8901 8.7265 11.48C8.54813 11.0699 8.45633 10.6303 8.45633 10.1863C8.45633 9.74241 8.54813 9.30282 8.7265 8.89269C8.90487 8.48255 9.16631 8.10988 9.4959 7.79598C9.82548 7.48207 10.2168 7.23306 10.6474 7.06318C11.078 6.89329 11.5395 6.80585 12.0056 6.80585C12.947 6.80585 13.8497 7.16201 14.5154 7.79598C15.181 8.42994 15.5549 9.28978 15.5549 10.1863C15.5549 11.0829 15.181 11.9427 14.5154 12.5767C13.8497 13.2107 12.947 13.5668 12.0056 13.5668Z" fill="#0054A6"/>
</g>
</svg>
