<svg version="1.2" xmlns="http://www.w3.org/2000/svg" viewBox="0 0 20 21" width="20" height="21">
	<title>phone-svg</title>
	<style>
		.s0 { fill: #ffffff } 
	</style>
	<path class="s0" d="m20 17q0 0.5-0.3 1.1-0.2 0.5-0.7 1-0.7 0.8-1.6 1.2-0.9 0.4-2 0.4-1.5 0-3.2-0.8-1.7-0.7-3.4-1.9-1.8-1.3-3.3-2.8-1.5-1.6-2.8-3.3-1.3-1.7-2-3.4-0.7-1.7-0.7-3.3 0-1 0.4-1.9 0.3-0.9 1.1-1.7 1-0.9 2.1-0.9 0.4 0 0.8 0.1 0.4 0.2 0.7 0.6l2.3 3.3q0.3 0.3 0.4 0.7 0.1 0.3 0.1 0.6 0 0.3-0.2 0.7-0.2 0.3-0.5 0.7l-0.8 0.8q-0.2 0.2-0.2 0.4 0 0.1 0.1 0.2 0 0.1 0 0.2 0.3 0.5 1 1.3 0.7 0.8 1.4 1.6 0.8 0.8 1.6 1.5 0.8 0.6 1.3 0.9 0.1 0 0.2 0.1 0.1 0 0.2 0 0.3 0 0.4-0.2l0.8-0.7q0.4-0.4 0.7-0.6 0.4-0.2 0.7-0.2 0.3 0 0.6 0.1 0.4 0.2 0.7 0.4l3.4 2.4q0.3 0.2 0.5 0.6 0.2 0.4 0.2 0.8z"/>
</svg>