<svg version="1.2" xmlns="http://www.w3.org/2000/svg" viewBox="0 0 20 22" width="20" height="22">
	<title>point-svg</title>
	<style>
		.s0 { fill: #ffffff } 
	</style>
	<path fill-rule="evenodd" class="s0" d="m14.3 20.4c-1.2 1.1-2.8 1.6-4.3 1.6-1.6 0-3.1-0.6-4.3-1.6-3.2-3-6.7-7.7-5.4-13.2 1.2-5 5.7-7.2 9.7-7.2 4 0 8.5 2.2 9.7 7.2 1.3 5.5-2.2 10.2-5.4 13.2zm-1.8-8.8c0.7-0.7 1.1-1.5 1.1-2.4 0-0.9-0.4-1.8-1.1-2.4-0.7-0.6-1.6-1-2.5-1q-0.7 0-1.4 0.3-0.6 0.2-1.1 0.7-0.5 0.5-0.8 1.1-0.2 0.6-0.2 1.3 0 0.7 0.2 1.3 0.3 0.6 0.8 1.1 0.5 0.5 1.1 0.7 0.7 0.3 1.4 0.3c0.9 0 1.8-0.4 2.5-1z"/>
</svg>