<svg width="20" height="18" viewBox="0 0 20 18" fill="none" xmlns="http://www.w3.org/2000/svg">
<path fill-rule="evenodd" clip-rule="evenodd" d="M5 17.3333H15C18 17.3333 20 15.8333 20 12.3333V5.33325C20 1.83325 18 0.333252 15 0.333252H5C2 0.333252 0 1.83325 0 5.33325V12.3333C0 15.8333 2 17.3333 5 17.3333ZM15.4681 6.41927C15.7917 6.16076 15.8445 5.68884 15.586 5.36519C15.3275 5.04154 14.8556 4.98873 14.5319 5.24724L11.4029 7.74649L11.4025 7.74675C10.6462 8.34862 9.3446 8.34875 8.58797 7.74716L5.46898 5.24797C5.14573 4.98896 4.67372 5.04103 4.41471 5.36427C4.1557 5.68752 4.20778 6.15953 4.53102 6.41854L7.65102 8.91854L7.65287 8.92001C8.95626 9.95766 11.0337 9.95766 12.3371 8.92001L12.3381 8.91927L15.4681 6.41927Z" fill="white"/>
</svg>
